<!-- <svg fill="#0F0F11" role="img" viewBox="0 0 24 24" xmlns="http://www.w3.org/2000/svg"><title>Angular</title><path d="M16.712 17.711H7.288l-1.204 2.916L12 24l5.916-3.373-1.204-2.916ZM14.692 0l7.832 16.855.814-12.856L14.692 0ZM9.308 0 .662 3.999l.814 12.856L9.308 0Zm-.405 13.93h6.198L12 6.396 8.903 13.93Z"/></svg> -->

<svg _ngcontent-ng-c249881476="" xmlns="http://www.w3.org/2000/svg" fill="none" viewBox="0 0 223 236" width="32" class="angular-logo"><g _ngcontent-ng-c249881476="" clip-path="url(#a)"><path _ngcontent-ng-c249881476="" fill="url(#b)" d="m222.077 39.192-8.019 125.923L137.387 0l84.69 39.192Zm-53.105 162.825-57.933 33.056-57.934-33.056 11.783-28.556h92.301l11.783 28.556ZM111.039 62.675l30.357 73.803H80.681l30.358-73.803ZM7.937 165.115 0 39.192 84.69 0 7.937 165.115Z"></path><path _ngcontent-ng-c249881476="" fill="url(#c)" d="m222.077 39.192-8.019 125.923L137.387 0l84.69 39.192Zm-53.105 162.825-57.933 33.056-57.934-33.056 11.783-28.556h92.301l11.783 28.556ZM111.039 62.675l30.357 73.803H80.681l30.358-73.803ZM7.937 165.115 0 39.192 84.69 0 7.937 165.115Z"></path></g><defs _ngcontent-ng-c249881476=""><linearGradient _ngcontent-ng-c249881476="" id="b" x1="49.009" x2="225.829" y1="213.75" y2="129.722" gradientUnits="userSpaceOnUse"><stop _ngcontent-ng-c249881476="" stop-color="#E40035"></stop><stop _ngcontent-ng-c249881476="" offset=".24" stop-color="#F60A48"></stop><stop _ngcontent-ng-c249881476="" offset=".352" stop-color="#F20755"></stop><stop _ngcontent-ng-c249881476="" offset=".494" stop-color="#DC087D"></stop><stop _ngcontent-ng-c249881476="" offset=".745" stop-color="#9717E7"></stop><stop _ngcontent-ng-c249881476="" offset="1" stop-color="#6C00F5"></stop></linearGradient><linearGradient _ngcontent-ng-c249881476="" id="c" x1="41.025" x2="156.741" y1="28.344" y2="160.344" gradientUnits="userSpaceOnUse"><stop _ngcontent-ng-c249881476="" stop-color="#FF31D9"></stop><stop _ngcontent-ng-c249881476="" offset="1" stop-color="#FF5BE1" stop-opacity="0"></stop></linearGradient><clipPath _ngcontent-ng-c249881476="" id="a"><path _ngcontent-ng-c249881476="" fill="#fff" d="M0 0h223v236H0z"></path></clipPath></defs></svg>